<?xml version="1.0" encoding="utf-8"?>
<!DOCTYPE svg PUBLIC "-//W3C//DTD SVG 1.1//EN" "http://www.w3.org/Graphics/SVG/1.1/DTD/svg11.dtd">
<svg version="1.1" id="YouTube" xmlns="http://www.w3.org/2000/svg" xmlns:xlink="http://www.w3.org/1999/xlink" x="0px" y="0px"
   viewBox="0 0 29.154 33.555" aria-hidden="true" data-icon="youtube" class="svg-inline--fa fa-youtube fa-w-16" role="img">
   <style type="text/css">
    .youtube {
    	fill: #fff;
    }
</style>
  <path class="youtube" d="M24.547,15.19c2.147.141,2.941.649,3.748,2.038,1.144,1.968,1.147,12.321,0,14.283-.809,1.38-1.6,1.887-3.748,2.044H4.608C2.461,33.4,1.669,32.891.86,31.511-.287,29.549-.287,19.194.86,17.228c.809-1.388,1.6-1.9,3.748-2.038ZM2.82,19.805H4.812V30.293H6.648V19.805H8.6V18.066H2.82Zm5.7-6.348H6.531V7.969L4.089,0H6.121l1.33,5.41H7.62L8.972,0H11L8.523,7.969ZM12.1,28.125a2.567,2.567,0,0,1-.546.5.9.9,0,0,1-.463.191.41.41,0,0,1-.365-.159.839.839,0,0,1-.11-.474V21.23H8.972v7.575a2.011,2.011,0,0,0,.292,1.187,1,1,0,0,0,.861.4,1.991,1.991,0,0,0,.966-.285,3.728,3.728,0,0,0,.962-.786l.044-.048v1.023h1.641V21.23H12.1Zm3.5-24.186a2.483,2.483,0,0,1,.723,1.839v5.178a2.715,2.715,0,0,1-.709,1.983,2.431,2.431,0,0,1-1.869.713,2.7,2.7,0,0,1-1.972-.736,2.749,2.749,0,0,1-.724-2v-5.2a2.363,2.363,0,0,1,.737-1.814,2.753,2.753,0,0,1,1.959-.682A2.541,2.541,0,0,1,15.593,3.939Zm-2.537,1.17a.729.729,0,0,0-.217.539v5.457a.966.966,0,0,0,.2.64.757.757,0,0,0,.63.241.831.831,0,0,0,.618-.231.886.886,0,0,0,.23-.65V5.648a.7.7,0,0,0-.236-.535.868.868,0,0,0-.612-.216A.905.905,0,0,0,13.056,5.109ZM17,30.293v-.777l.041.053a2.123,2.123,0,0,0,.7.607,1.976,1.976,0,0,0,.869.2,1.334,1.334,0,0,0,1.124-.5,2.393,2.393,0,0,0,.388-1.467V23.4a2.811,2.811,0,0,0-.426-1.674,1.4,1.4,0,0,0-1.188-.571,1.538,1.538,0,0,0-.762.222,2.519,2.519,0,0,0-.709.616l-.04.05V18.066H15.359V30.293Zm1.3-7.5a1.151,1.151,0,0,1,.187.7v4.662a1.042,1.042,0,0,1-.153.635.532.532,0,0,1-.435.2,1.371,1.371,0,0,1-.5-.1,1.683,1.683,0,0,1-.4-.332l0-5.65a1.052,1.052,0,0,1,.345-.275,1.033,1.033,0,0,1,.444-.1A.588.588,0,0,1,18.3,22.8Zm3-9.34,0-1.134-.044.054a3.651,3.651,0,0,1-1.058.865,2.116,2.116,0,0,1-1.063.313,1.1,1.1,0,0,1-.947-.436,2.219,2.219,0,0,1-.321-1.307V3.477h1.8v7.646a.946.946,0,0,0,.12.522.457.457,0,0,0,.4.173,1.015,1.015,0,0,0,.516-.209,2.792,2.792,0,0,0,.6-.544V3.477h1.8v9.98Zm.924,8.329a2.64,2.64,0,0,0-.709,1.892V27.73a3,3,0,0,0,.646,2.032,2.213,2.213,0,0,0,1.751.734,2.372,2.372,0,0,0,1.862-.7,3.032,3.032,0,0,0,.624-2.07v-.64h-1.68v.59a2,2,0,0,1-.173,1.041.7.7,0,0,1-.595.242.619.619,0,0,1-.567-.282,2.115,2.115,0,0,1-.169-1V25.958h3.184v-2.28a2.812,2.812,0,0,0-.62-1.951,2.235,2.235,0,0,0-1.739-.683A2.409,2.409,0,0,0,22.22,21.786Zm2.337,1.054a1.473,1.473,0,0,1,.177.821v.948H23.21v-.948a1.491,1.491,0,0,1,.175-.826.7.7,0,0,1,.6-.254A.656.656,0,0,1,24.557,22.84Z"></path>
</svg>
